<?xml version="1.0" standalone="no"?>
<!DOCTYPE svg PUBLIC "-//W3C//DTD SVG 20010904//EN"
 "http://www.w3.org/TR/2001/REC-SVG-20010904/DTD/svg10.dtd">
<svg version="1.0" xmlns="http://www.w3.org/2000/svg"
 width="512.000000pt" height="455.000000pt" viewBox="0 0 512.000000 455.000000"
 preserveAspectRatio="xMidYMid meet">

<g transform="translate(0.000000,455.000000) scale(0.100000,-0.100000)"
fill="#000000" stroke="none">
<path d="M1975 4537 c-71 -24 -120 -54 -164 -102 -68 -73 -86 -123 -86 -235 0
-83 3 -102 27 -151 35 -70 97 -132 168 -167 48 -24 67 -27 150 -27 79 0 103 4
142 24 75 37 134 95 170 169 30 60 33 75 33 152 -1 70 -5 95 -27 142 -34 73
-104 142 -175 175 -68 31 -176 40 -238 20z"/>
<path d="M1648 3797 c-122 -46 -184 -112 -273 -292 -108 -219 -155 -390 -177
-636 -9 -109 -9 -148 2 -198 22 -105 83 -179 175 -215 22 -8 193 -51 380 -96
187 -44 349 -84 360 -89 12 -5 100 -141 214 -330 222 -372 226 -376 341 -376
76 0 119 22 161 83 20 29 24 48 24 106 l0 71 -228 378 c-205 339 -233 379
-270 401 -26 15 -148 49 -325 92 l-284 68 6 31 c21 103 22 102 -21 123 -101
52 -171 181 -188 350 -9 92 12 258 38 306 58 103 217 101 269 -4 15 -30 17
-54 11 -180 -9 -208 1 -213 66 -38 52 139 53 145 49 229 -5 101 -34 163 -95
200 -46 28 -177 37 -235 16z"/>
<path d="M3062 3666 c-114 -130 -24 -339 153 -354 61 -5 152 28 139 50 -10 17
-233 309 -249 326 -10 11 -18 6 -43 -22z"/>
<path d="M1646 3599 c-41 -32 -54 -68 -65 -175 -28 -277 58 -458 244 -510 114
-32 260 0 448 99 55 28 107 62 118 75 43 55 33 130 -23 177 -47 40 -87 34
-221 -34 -122 -62 -207 -88 -251 -77 -59 15 -82 112 -64 269 10 89 9 103 -6
132 -35 64 -126 86 -180 44z"/>
<path d="M2444 3405 c-55 -42 -100 -79 -101 -83 -1 -4 12 -14 30 -23 39 -19
77 -82 77 -127 l0 -33 60 47 60 47 106 -49 c101 -46 104 -49 85 -63 -11 -9
-141 -108 -289 -221 -148 -113 -268 -208 -266 -211 2 -3 29 -11 61 -18 73 -17
124 -42 154 -78 13 -16 123 -193 244 -393 l220 -365 0 -81 c0 -71 -3 -85 -28
-122 -56 -85 -166 -124 -262 -92 -68 22 -102 67 -276 357 -120 199 -174 281
-182 275 -7 -5 -247 -188 -534 -406 l-521 -398 -7 -71 c-3 -40 -5 -106 -3
-149 l3 -76 370 259 370 258 146 1 c168 0 280 -16 414 -61 97 -32 207 -91 268
-142 l39 -32 -58 -43 c-64 -46 -75 -49 -94 -26 -24 28 -145 93 -225 120 -59
19 -108 28 -186 32 -136 6 -231 -14 -358 -75 -79 -38 -107 -58 -180 -131 -95
-96 -140 -165 -176 -269 -108 -310 -4 -640 263 -830 342 -244 832 -135 1042
231 57 100 81 189 87 318 6 129 -5 208 -42 299 l-23 56 399 304 c330 252 397
307 393 324 -16 70 -224 1218 -221 1221 4 4 385 -171 394 -180 2 -2 -4 -41
-13 -87 -33 -163 -1 -354 83 -499 46 -79 178 -213 255 -258 119 -70 284 -109
418 -99 105 9 181 30 280 79 68 34 103 60 176 133 78 78 98 104 137 185 61
128 81 223 75 359 -10 187 -80 346 -213 476 -136 133 -279 194 -476 203 -133
5 -232 -14 -344 -68 -79 -38 -199 -132 -240 -188 -16 -23 -33 -42 -36 -42 -4
0 -286 131 -629 290 -342 160 -623 290 -625 290 -1 0 -47 -34 -101 -75z m2051
-500 c84 -22 147 -60 210 -126 203 -213 141 -556 -124 -687 -74 -36 -77 -37
-191 -37 -110 0 -118 2 -185 34 -116 57 -202 160 -235 280 -13 49 -15 190 -3
202 5 5 100 -34 211 -86 112 -52 205 -95 208 -95 10 0 93 185 86 191 -6 6
-122 61 -341 161 l-64 29 34 35 c89 92 258 134 394 99z m-2324 -1759 c60 -13
149 -49 149 -61 0 -2 -74 -61 -165 -130 -91 -69 -165 -130 -165 -134 0 -7 138
-192 160 -215 6 -6 174 115 328 237 19 15 30 -6 38 -73 15 -118 -29 -252 -113
-341 -89 -96 -187 -140 -314 -141 -145 -1 -271 61 -354 173 -164 223 -83 539
167 654 98 45 166 52 269 31z"/>
<path d="M332 1125 c-109 -34 -192 -125 -192 -210 0 -42 12 -69 47 -106 l24
-26 -41 -7 c-137 -22 -197 -132 -139 -253 23 -48 87 -93 133 -93 23 0 25 -2
16 -19 -16 -31 -12 -93 10 -128 50 -83 181 -118 274 -74 49 24 120 95 113 114
-9 27 -40 18 -74 -22 -82 -97 -197 -108 -262 -25 -33 42 -28 94 14 148 41 55
33 64 -42 45 -47 -11 -59 -11 -81 2 -42 24 -65 64 -69 121 -7 95 46 146 164
156 35 2 63 8 63 12 0 4 -11 15 -25 24 -87 57 -83 191 8 260 151 116 300 71
323 -96 9 -69 24 -77 87 -44 77 39 121 36 167 -13 88 -92 76 -247 -24 -306
-23 -14 -57 -28 -74 -31 -38 -8 -42 -21 -8 -30 62 -15 158 42 197 117 55 110
-11 271 -127 309 -35 12 -109 9 -145 -5 -13 -5 -20 2 -29 29 -42 129 -173 193
-308 151z"/>
<path d="M493 661 c-69 -32 -128 -148 -90 -179 12 -10 17 -5 31 32 19 49 72
102 111 112 14 3 41 4 60 2 38 -4 41 -1 22 26 -19 27 -85 30 -134 7z"/>
<path d="M662 530 c14 -41 99 -133 162 -177 l51 -35 -85 5 c-96 6 -176 31
-240 78 -48 35 -59 33 -30 -4 49 -62 236 -126 368 -127 86 0 82 17 -20 83 -84
55 -149 118 -180 175 -22 42 -41 43 -26 2z"/>
</g>
</svg>
